PathFileType	4	(X/Y/Z)	70_2_85_p0_0-522_filt_butterworth.trc
DataRate	CameraRate	NumFrames	NumMarkers	Units	OrigDataRate	OrigDataStartFrame	OrigNumFrames
59.0	59.0	6	27	m	59.0	326	522
Frame#	Time	RHip			RKnee			RAnkle			RBigToe			RSmallToe			RHeel			LHip			LKnee			LAnkle			LBigToe			LSmallToe			LHeel			Neck			Head			Nose			RShoulder			RElbow			RWrist			RThumb			RIndex			RPinky			LShoulder			LElbow			LWrist			LThumb			LIndex			LPinky			
		X1	Y1	Z1	X2	Y2	Z2	X3	Y3	Z3	X4	Y4	Z4	X5	Y5	Z5	X6	Y6	Z6	X7	Y7	Z7	X8	Y8	Z8	X9	Y9	Z9	X10	Y10	Z10	X11	Y11	Z11	X12	Y12	Z12	X13	Y13	Z13	X14	Y14	Z14	X15	Y15	Z15	X16	Y16	Z16	X17	Y17	Z17	X18	Y18	Z18	X19	Y19	Z19	X20	Y20	Z20	X21	Y21	Z21	X22	Y22	Z22	X23	Y23	Z23	X24	Y24	Z24	X25	Y25	Z25	X26	Y26	Z26	X27	Y27	Z27	
326	5.52542372881356	0.37680031749493986	0.5014251745872703	0.07908415567678576	0.3838884626563262	0.6847424295593636	0.4900953229893351	0.39466511136625765	0.8015157071730954	0.9235134553778258	0.3227684981671902	0.6407452254811943	1.0043137289318158	0.39920242177873877	0.627933383915452	0.9856332600292016	0.37236065173185273	0.9227938361735734	0.9990145213010556	0.16425304173266275	0.5335947187312499	0.07206964093922316	0.1782139899791985	0.6391213194812442	0.47987104407418346	0.165377355366555	0.843115089520879	0.9050207162546988	0.16670167743862324	0.6570930461728807	0.9853494468118992	0.11852952095936661	0.7026188415916209	0.9713778183901617	0.18809583220636983	0.906925413811941	0.954284361275768	0.2517381131543687	0.3803065332243405	-0.5438633338006813	0.24422115329416744	0.26065922463816593	-0.7876692028036699	0.24194699447792825	0.22031569034721604	-0.6291159224105757	0.44035177333740283	0.38255647516062585	-0.46770024674742783	0.5351197388973076	0.4972890969258641	-0.18806165149405843	0.5106627478742598	0.4756357589104088	0.10472444163140801	0.4467501019959672	0.4264103272603391	0.21098439591523782	0.45010960249614285	0.43319454985535716	0.22979778814969326	0.4958330811468936	0.5113443554663002	0.22533371298289995	0.09665377173003362	0.4972445318145571	-0.4745201271276311	0.036365156476729055	0.5895170305768044	-0.20806266072361373	0.0285817436861083	0.5594893940650677	0.08813418843524568	0.06354051447904095	0.5318804367276626	0.19821592175836128	0.038847598857442774	0.5135838123133045	0.21583620289506403	0.014766443919288167	0.6056972190770108	0.2228087585967145
327	5.5423728813559325	0.37681735475742134	0.5006469415674815	0.07905202019709333	0.3838507958995523	0.6844676436527304	0.48991711695866474	0.3946933675264218	0.800851158407243	0.923083862946177	0.32313385055458727	0.6437929483012164	1.0051216916100116	0.3993018833489979	0.6277988973317995	0.9851673039831188	0.3723018143674212	0.922795988348214	0.9977843700922311	0.1642959387115126	0.5336510659198207	0.07209179815707711	0.17841670510184832	0.6392513662168151	0.479858091500031	0.16524318897402224	0.8429061843229938	0.9044591713154017	0.16655636016823344	0.6567159517955442	0.9852553713434113	0.11807083235633276	0.7024253371975716	0.9727974393534771	0.1874499370121492	0.9058806101889072	0.9521469311244939	0.2517245613795605	0.3804193715095639	-0.5428795105704771	0.24480319865927078	0.25744645751433237	-0.7867645794731016	0.24192948011577803	0.220420525202269	-0.6291721875174836	0.4403414741970657	0.38258185640360676	-0.4676867487243822	0.535063220490661	0.49727329928029607	-0.18807420760384758	0.5062313076661396	0.47218335784004134	0.10457737752364424	0.4427502196059189	0.42367508778573915	0.21068693655529103	0.4462938549458436	0.4305691870415781	0.229322872355869	0.4945263100484102	0.5073327152101222	0.22575313605350397	0.09663002386431638	0.4973144529645729	-0.47472437433503534	0.036465837506908	0.5896110320617621	-0.208047524954381	0.03318553454655847	0.5514852592608697	0.08647174100396648	0.06602276068080522	0.5302302019013072	0.1965570793324514	0.04077371739850201	0.5134154520284024	0.21522121376805659	0.017326159063998817	0.5909779957818636	0.22162175026048778
328	5.559322033898305	0.37799216950942227	0.5008817059255313	0.07902526725621575	0.38383411017890656	0.6843224264464638	0.48971513100415504	0.39468488345827646	0.8005057768988952	0.9232361411678156	0.3229368819507647	0.6430649890575424	1.0039862395297767	0.39803703348682695	0.6242790197348399	0.9830126739226848	0.37242169631716276	0.9231338280925373	0.9966904191471154	0.16434716388988568	0.5336949540603155	0.07209617189532959	0.17932936753505918	0.639654146109016	0.4804012593084096	0.16534215796731985	0.8428967370315582	0.9043281465374307	0.16643075723635167	0.6565209409897457	0.9852094538815465	0.11665434752484191	0.7034276319368502	0.9740348306116553	0.18731345841852304	0.9051792171387565	0.950487441681714	0.2522023443128479	0.3817555438892893	-0.5418132488745059	0.24557284205215352	0.2532679911757494	-0.786078050720435	0.24192869457865016	0.22038693846229623	-0.6291591329698102	0.4403365300950105	0.3826257648757571	-0.4676010180088837	0.5349176754406861	0.49709239109594666	-0.1881589869875523	0.5021984237758844	0.4705980798644594	0.10450159791354756	0.43832728445779706	0.42281657106542303	0.21022040108257384	0.4427662525876427	0.4274514163229393	0.2288217811946456	0.49232472006683436	0.49955367589399446	0.22576628823980643	0.09654500269060003	0.49686664876775133	-0.4751880184133935	0.036342330817616	0.5896838103013586	-0.20787484270127324	0.0368924389964789	0.5443197565180267	0.08499265476691327	0.06832144732560384	0.5286399454215203	0.19383738005883216	0.04372869584394738	0.5141166624896858	0.2153324131313924	0.02060768454016141	0.5693601936201582	0.21922095463547422
329	5.576271186440678	0.38033871607263586	0.5028105890216014	0.07908169134499426	0.38384512357432676	0.6843269795350444	0.48954447486631475	0.394777738470709	0.8003245952787247	0.9243091103066361	0.32229532328533433	0.6402558866487607	1.002042820665404	0.39616266011452006	0.6193901931608126	0.9803001094002395	0.3727068295146122	0.9235059312337665	0.9967826975222114	0.1644179070768607	0.5337230427944603	0.07208847490581974	0.18109650593517523	0.6413609839805132	0.48096807287804955	0.165518466520997	0.8427805636410151	0.903898347172215	0.1663468372139478	0.6564908196487269	0.9850611548910289	0.11445037031780389	0.7066946015749443	0.9747618475369938	0.1874047635030728	0.9050051426727825	0.9502944406563179	0.25345457421660844	0.3848821256986188	-0.5413652396832885	0.24616034204819676	0.2501092614596822	-0.7858208254650418	0.241926443187493	0.22029166369507264	-0.6291032348108614	0.440334934069957	0.3826560673804478	-0.46756524782320164	0.5347649355327294	0.4968666751143479	-0.18859377716112175	0.498521661278877	0.46994715262936215	0.10447891175004578	0.4325211736707468	0.4223726131811758	0.2087357541409773	0.43903511482869706	0.4242048483823757	0.22755578179716987	0.4884690682467244	0.4897656955071561	0.22429484317771933	0.09642778523474994	0.496200701622863	-0.4758191646948417	0.03624779093109072	0.5896954889895838	-0.20781509744998447	0.03908488883454177	0.5381612041690984	0.08417455686715455	0.0710564545549207	0.5250511616156938	0.1910094503120439	0.04669339385969694	0.5148587666257137	0.2155488253229236	0.024909310744967945	0.5472072448138465	0.21663637872900338
330	5.593220338983051	0.3831962608358086	0.5065403313475805	0.07927721211722322	0.38388086781813247	0.6843678661220776	0.48919884026746674	0.39506156028033995	0.8003790765680232	0.9263251900309271	0.3215729995620671	0.6356054132714396	0.9999088326013938	0.3946141064669528	0.6155712739034592	0.9782408467565662	0.3730542196555108	0.9238292395406416	0.9980629492352526	0.1644936915028558	0.5337533925787171	0.07208004206508331	0.18335145828711455	0.6449549923606109	0.4814493008842351	0.1657746185988986	0.8423974170726397	0.9027173958575466	0.16632296474324332	0.6564572706746605	0.9844739086882339	0.11238350318699374	0.7114308441526586	0.9748058449102233	0.18758173647502496	0.9051116641405719	0.951222404156812	0.25511129612823535	0.3888667461922983	-0.5416277585522393	0.24639838517375548	0.24887753837835275	-0.7858484119954461	0.24192114720440316	0.22020620353569093	-0.6290690236230555	0.4403365938219108	0.3826707971086485	-0.4675821285427276	0.5346303598080884	0.49667471878578406	-0.1896140630934938	0.495204008450332	0.4686201047025861	0.1044017479229141	0.4260037973549514	0.4207678562767222	0.20660861748635082	0.4348780948166277	0.42012352556790517	0.22526650624096076	0.4821072810211237	0.4789443384549851	0.22109016414497626	0.09633458295069522	0.49573750265075367	-0.4763852858977007	0.03622373708283261	0.5896166310653026	-0.20784139269777646	0.04034332659024027	0.533064830491668	0.08406016991439874	0.07485195815914308	0.5178668615987492	0.18936699444519037	0.04900222820844993	0.5152879478665939	0.21554499029278223	0.02956512121900074	0.5317240134274708	0.21473633242356382
331	5.610169491525424	0.3856911174946723	0.510856135354632	0.07955382259469392	0.38397928422311567	0.6842320887278799	0.48862346932307826	0.395451105339522	0.8008479005742618	0.9288452383287442	0.32107483592840297	0.6285618004107328	0.9973699552030322	0.393860362494201	0.613827418285646	0.9774055149544087	0.3733534168150595	0.9243108643937544	0.9994603840476465	0.16456402060226755	0.5338193799785055	0.07206204447290081	0.18548929751189563	0.6492549884716783	0.48154165853973985	0.16607008990514927	0.8418556144104051	0.9010823065074289	0.16640637355174637	0.6563198752720835	0.9833242951527973	0.11117606214793077	0.7153662046937656	0.97399269421839	0.18807771526550404	0.9045393828292623	0.9519539376792704	0.2563571344030075	0.391794225524876	-0.5420295745430711	0.24640792005213596	0.24889397382828518	-0.7859533369735978	0.24191104757373644	0.220145781918259	-0.6290842685853717	0.4403407004174704	0.38266628105710576	-0.4676253174164776	0.5345288412036053	0.4965627375900845	-0.19094318727548082	0.4921512355678766	0.46562397321663374	0.10424683499016914	0.42058954474264204	0.4176989704844615	0.2050657275064201	0.4307327529861723	0.41562401893935963	0.2226061712952599	0.473795632087835	0.4666732155085755	0.21657024375504924	0.09628991802710613	0.4956606270977234	-0.47665444284069497	0.03623967397487972	0.5894607582554393	-0.20786779005360276	0.04176668449092562	0.5283516135639458	0.08437452001383254	0.07988251323572355	0.5060240905191508	0.18868918294457365	0.05113187647818977	0.514083792988647	0.21519737581351417	0.03342253319018385	0.5249728902861555	0.21349538419532726
